<svg width="18" height="18" viewBox="0 0 18 18" fill="none" xmlns="http://www.w3.org/2000/svg">
<path d="M7.07189 9.64284C5.40858 9.67901 3.80632 10.2801 2.53033 11.3481C1.25432 12.4168 0.38091 13.8874 0.0521928 15.5185C-0.0884255 16.1277 0.058621 16.7673 0.450747 17.2543C0.814743 17.7228 1.37402 17.9984 1.96783 18H12.176C12.7698 17.9984 13.329 17.7228 13.693 17.2543C14.0852 16.7673 14.2322 16.1277 14.0916 15.5185C13.7629 13.8873 12.8895 12.4167 11.6135 11.3481C10.3374 10.2801 8.73523 9.67901 7.07189 9.64284ZM12.6901 16.4508C12.5704 16.6148 12.3792 16.7128 12.1759 16.7144H1.96772C1.76443 16.7128 1.57318 16.6147 1.45346 16.4508C1.30882 16.27 1.25418 16.0338 1.30561 15.808C1.56836 14.4604 2.28271 13.2421 3.33133 12.355C4.37996 11.468 5.69942 10.9648 7.07188 10.9287C8.44674 10.96 9.77012 11.4606 10.8227 12.3462C11.8746 13.2325 12.5921 14.4515 12.8573 15.8016C12.9055 16.0322 12.8436 16.2725 12.6901 16.4508ZM7.07189 8.35712C8.17997 8.35712 9.24312 7.91676 10.0264 7.13327C10.8099 6.34977 11.2502 5.28663 11.2502 4.17856C11.2502 3.07049 10.8099 2.00722 10.0264 1.22385C9.24299 0.440357 8.17991 0 7.07189 0C5.96388 0 4.90067 0.440357 4.11735 1.22385C3.3339 2.00734 2.89356 3.07049 2.89356 4.17856C2.89517 5.28589 3.3363 6.34825 4.11895 7.13162C4.9024 7.91431 5.96473 8.35551 7.07189 8.35712ZM7.07189 1.28561C8.24184 1.28561 9.29681 1.99035 9.74442 3.07116C10.192 4.15278 9.9445 5.39679 9.11766 6.22439C8.29002 7.05127 7.0462 7.29879 5.9646 6.85119C4.88385 6.40359 4.17914 5.34849 4.17914 4.17852C4.18235 2.58261 5.47617 1.28869 7.07189 1.28561ZM18 8.35712C18 8.52747 17.9325 8.6914 17.812 8.81193C17.6914 8.93247 17.5275 8.99997 17.3572 8.99997H16.0715V10.2857C16.0715 10.6409 15.7839 10.9286 15.4287 10.9286C15.0735 10.9286 14.7859 10.6409 14.7859 10.2857V8.99997H13.5002C13.145 8.99997 12.8574 8.7123 12.8574 8.35711C12.8574 8.00192 13.145 7.71424 13.5002 7.71424H14.7859V6.42851C14.7859 6.07332 15.0735 5.78565 15.4287 5.78565C15.7839 5.78565 16.0715 6.07332 16.0715 6.42851V7.71424H17.3572C17.5275 7.71424 17.6914 7.78174 17.812 7.90228C17.9325 8.02282 18 8.18676 18 8.35712Z" fill="white"/>
</svg>
