<svg width="23" height="24" viewBox="0 0 23 24" fill="none" xmlns="http://www.w3.org/2000/svg">
<path d="M18.4703 24H4.49234C2.01268 24 0.00133597 21.951 7.95909e-06 19.4217V9.27453C-0.00258598 7.87502 0.628988 6.55222 1.71059 5.68975L1.76765 5.6461L9.05114 0.745061C10.5257 -0.248354 12.4372 -0.248354 13.9107 0.745061L21.1888 5.63526C21.2096 5.64849 21.2277 5.66304 21.2459 5.68024C22.3301 6.54402 22.9617 7.87079 22.9565 9.27415V19.4213C22.9539 21.9478 20.9475 23.9973 18.4703 24ZM2.72874 7.04835C2.06085 7.59203 1.67437 8.41745 1.67696 9.28916V19.4217C1.67825 21.0117 2.94272 22.3014 4.50287 22.3028H18.4809H18.4796C20.0397 22.3014 21.3029 21.0117 21.3029 19.4217V9.2746C21.2977 8.40817 20.9086 7.58935 20.2433 7.04835L12.9924 2.16052C12.0729 1.54278 10.8823 1.54278 9.96415 2.16052L2.72874 7.04835Z" fill="#737373"/>
<path d="M16.902 18.8013H5.01476C4.55143 18.8013 4.17578 18.5679 4.17578 18.28C4.17578 17.992 4.55143 17.7578 5.01476 17.7578H16.902C17.3654 17.7578 17.741 17.992 17.741 18.28C17.741 18.5679 17.3654 18.8013 16.902 18.8013Z" fill="#737373"/>
</svg>
