<svg width="24" height="15" viewBox="0 0 24 15" fill="none" xmlns="http://www.w3.org/2000/svg">
<path d="M12.0035 10.1721C11.8266 10.1721 11.6497 10.1469 11.4728 10.0711L4.57422 7.67114V12.0416C4.57422 12.1931 4.62476 12.3447 4.75111 12.4205C4.85218 12.5215 7.3286 14.6689 12.0035 14.6689C16.6783 14.6689 19.1548 12.5215 19.2558 12.4205C19.3569 12.3194 19.4327 12.1679 19.4327 12.0416V7.67114L12.5341 10.0711C12.3572 10.1216 12.1804 10.1721 12.0035 10.1721Z" fill="white"/>
<path d="M23.627 4.00292L12.2052 0.0378825C12.0789 -0.0126275 11.9525 -0.0126275 11.8262 0.0378825L0.379044 4.00292C-0.126348 4.17971 -0.126348 4.9121 0.379044 5.11414L11.8009 9.07918C11.9272 9.12969 12.0536 9.12969 12.1799 9.07918L21.6055 5.79603V8.29628L20.999 8.70036C20.8727 8.80138 20.7716 8.95291 20.7716 9.12969V10.4935C20.7716 10.7713 20.999 10.9986 21.277 10.9986H22.9448C23.2227 10.9986 23.4502 10.7713 23.4502 10.4935V9.12969C23.4502 8.95291 23.3744 8.80138 23.2227 8.70036L22.6163 8.29628V5.44246L23.5765 5.11414C24.1324 4.9121 24.1324 4.17971 23.627 4.00292Z" fill="white"/>
</svg>
